<svg width="13" height="15" viewBox="0 0 13 15" fill="none" xmlns="http://www.w3.org/2000/svg">
<path d="M10.1811 3.7793C10.9347 3.91611 11.5528 4.32627 12.0359 5.00977C12.461 5.61533 12.7509 6.37705 12.9053 7.29492C13.0408 8.13486 13.0307 8.97451 12.8763 9.81445C12.6444 11.2011 12.1807 12.3633 11.4852 13.3008C10.6541 14.4337 9.61096 15 8.35508 15C8.04576 15 7.708 14.9024 7.34063 14.707C7.08934 14.5509 6.80933 14.4727 6.5 14.4727C6.19067 14.4727 5.91095 14.5509 5.65937 14.707C5.292 14.9024 4.95424 15 4.64492 15C3.38904 15 2.34587 14.4337 1.51481 13.3008C0.819259 12.3633 0.355561 11.2011 0.123711 9.81445C-0.0306612 8.97451 -0.0408173 8.13486 0.094694 7.29492C0.249067 6.37705 0.538951 5.61533 0.964056 5.00977C1.4472 4.32627 2.06527 3.91611 2.81885 3.7793C3.28255 3.70107 3.92006 3.76963 4.73168 3.98438C5.42723 4.17979 6.01657 4.41416 6.49971 4.6875C6.98285 4.41416 7.57219 4.17979 8.26774 3.98438C9.07965 3.76963 9.71745 3.70107 10.1811 3.7793ZM8.58693 2.57812C8.31649 2.83213 7.95871 3.01758 7.51445 3.13477C7.20512 3.23232 6.86736 3.28125 6.5 3.28125L6.06532 3.25195C6.02673 2.97861 6.02673 2.66602 6.06532 2.31445C6.1428 1.61133 6.36478 1.07432 6.73185 0.703125C7.00229 0.449121 7.36008 0.263672 7.80433 0.146484C8.11366 0.0489258 8.45142 0 8.81878 0L9.25346 0.0292969L9.28248 0.46875C9.28248 0.839941 9.23402 1.18154 9.13768 1.49414C9.0219 1.94326 8.83851 2.30479 8.58693 2.57812Z" fill="#F24E1E"/>
</svg>
