<svg width="75" height="75" viewBox="0 0 75 75" fill="none" xmlns="http://www.w3.org/2000/svg">
<path d="M37.5 4.6875C19.3799 4.6875 4.6875 19.3799 4.6875 37.5C4.6875 55.6201 19.3799 70.3125 37.5 70.3125C55.6201 70.3125 70.3125 55.6201 70.3125 37.5C70.3125 19.3799 55.6201 4.6875 37.5 4.6875ZM39.8438 53.3203C39.8438 53.6426 39.5801 53.9062 39.2578 53.9062H35.7422C35.4199 53.9062 35.1562 53.6426 35.1562 53.3203V33.3984C35.1562 33.0762 35.4199 32.8125 35.7422 32.8125H39.2578C39.5801 32.8125 39.8438 33.0762 39.8438 33.3984V53.3203ZM37.5 28.125C36.58 28.1062 35.7041 27.7276 35.0601 27.0703C34.4161 26.413 34.0554 25.5295 34.0554 24.6094C34.0554 23.6892 34.4161 22.8057 35.0601 22.1484C35.7041 21.4912 36.58 21.1125 37.5 21.0938C38.42 21.1125 39.2959 21.4912 39.9399 22.1484C40.5839 22.8057 40.9446 23.6892 40.9446 24.6094C40.9446 25.5295 40.5839 26.413 39.9399 27.0703C39.2959 27.7276 38.42 28.1062 37.5 28.125Z" fill="#5C3C22"/>
</svg>
